<svg width="24" height="24" viewBox="0 0 24 24" fill="none" xmlns="http://www.w3.org/2000/svg">
<path d="M22.46 6c-.85.38-1.76.64-2.72.75a4.74 4.74 0 0 0 2.08-2.61c-.91.54-1.92.93-3 1.14a4.73 4.73 0 0 0-8.05 4.31A13.43 13.43 0 0 1 1.64 4.58a4.73 4.73 0 0 0 1.46 6.31 4.68 4.68 0 0 1-2.14-.59v.06a4.73 4.73 0 0 0 3.79 4.64 4.7 4.7 0 0 1-2.13.08 4.73 4.73 0 0 0 4.42 3.28A9.49 9.49 0 0 1 1 19.54 13.38 13.38 0 0 0 8.29 21.5c8.75 0 13.53-7.25 13.53-13.53 0-.21 0-.41-.01-.62A9.66 9.66 0 0 0 24 4.56a9.53 9.53 0 0 0-2.54.7z" fill="white"/>
</svg>










